<?xml version="1.0" standalone="no"?>
<!DOCTYPE svg PUBLIC "-//W3C//DTD SVG 20010904//EN"
 "http://www.w3.org/TR/2001/REC-SVG-20010904/DTD/svg10.dtd">
<svg version="1.0" xmlns="http://www.w3.org/2000/svg"
 width="1671.000000pt" height="624.000000pt" viewBox="0 0 1671.000000 624.000000"
 preserveAspectRatio="xMidYMid meet">

<g transform="translate(0.000000,624.000000) scale(0.100000,-0.100000)"
fill="#000000" stroke="none">
<path d="M4804 4679 c-87 -33 -123 -75 -318 -369 -102 -154 -186 -283 -186
-286 0 -3 179 -4 398 -2 354 3 403 6 448 22 103 37 136 72 321 346 94 140 179
267 188 283 l16 27 -408 -1 c-380 0 -411 -1 -459 -20z"/>
<path d="M5959 4684 c-105 -32 -130 -59 -336 -365 -106 -156 -192 -288 -193
-293 0 -6 172 -7 428 -3 479 7 498 10 628 82 72 40 175 137 208 196 16 28 17
32 3 21 -14 -12 -19 -12 -32 1 -8 9 -24 19 -36 22 -17 6 -18 9 -7 23 7 10 8
14 4 10 -5 -5 -14 2 -20 14 -15 30 -41 37 -33 9 3 -12 1 -19 -5 -15 -5 3 -7
15 -5 26 4 15 2 18 -11 13 -9 -3 -13 -3 -9 1 4 4 -3 12 -16 19 -12 6 -21 17
-19 23 1 7 -2 12 -8 12 -5 0 -10 4 -10 8 0 5 6 9 14 9 7 0 13 -9 12 -20 -1
-12 8 -23 22 -28 13 -5 22 -5 22 2 0 5 -7 12 -15 15 -8 4 -15 10 -15 16 0 5 4
7 9 3 5 -3 12 -1 16 5 4 6 11 8 16 5 5 -3 6 1 3 10 -6 14 -8 14 -18 1 -10 -13
-13 -13 -30 -1 -11 8 -15 15 -8 15 6 0 9 9 7 20 -2 11 1 22 6 26 7 4 5 12 -4
22 -8 10 -17 26 -19 37 -2 11 -9 19 -16 18 -7 -2 -9 4 -5 14 4 11 3 14 -5 9
-7 -4 -12 -2 -12 3 0 6 -3 10 -7 10 -5 -1 -17 0 -28 1 -13 2 -7 5 15 10 19 4
-73 8 -205 8 -181 0 -251 -3 -286 -14z m544 -79 c14 -19 15 -29 7 -43 -9 -15
-10 -14 -5 6 4 12 3 22 -2 22 -4 0 -14 9 -21 20 -18 29 -1 24 21 -5z"/>
<path d="M11340 4000 l0 -700 135 0 135 0 0 288 c0 399 17 464 133 528 40 22
65 28 112 28 33 0 71 -6 85 -13 47 -25 90 -75 111 -130 20 -53 21 -73 20 -378
l-1 -323 141 0 141 0 -4 363 c-4 336 -6 367 -26 427 -55 168 -175 261 -355
276 -120 10 -220 -23 -309 -104 l-38 -34 -2 58 c-1 33 -2 118 -2 191 -1 117
-3 135 -22 160 -34 47 -79 63 -171 63 l-83 0 0 -700z"/>
<path d="M8528 4508 l-3 -163 -77 -3 -78 -3 0 -99 0 -100 80 0 80 0 0 -318 c0
-350 3 -375 60 -444 51 -61 120 -82 275 -83 72 0 138 3 148 7 15 6 17 22 17
111 l0 103 -57 -7 c-71 -8 -119 6 -147 44 -20 27 -21 40 -21 305 l0 277 75 6
c117 8 138 27 150 136 l6 62 -116 3 -115 3 -2 122 c-1 68 -7 132 -13 143 -24
44 -68 60 -167 60 l-93 0 -2 -162z"/>
<path d="M6545 4529 c-4 -6 -5 -12 -2 -15 2 -3 7 2 10 11 7 17 1 20 -8 4z"/>
<path d="M9510 4359 c-84 -14 -192 -70 -253 -131 -157 -156 -193 -465 -82
-695 41 -82 115 -157 198 -197 142 -70 363 -73 512 -7 65 29 159 122 195 194
16 33 30 66 30 74 0 10 -28 13 -128 13 l-128 0 -44 -45 c-54 -55 -120 -80
-195 -72 -59 6 -119 33 -152 69 -27 28 -59 99 -68 151 l-7 37 365 0 365 0 6
30 c7 36 -9 209 -25 265 -66 236 -300 361 -589 314z m227 -229 c21 -11 48 -35
60 -53 24 -35 55 -132 46 -141 -4 -3 -105 -6 -226 -6 l-220 0 7 43 c14 83 72
151 154 178 43 14 137 3 179 -21z"/>
<path d="M10603 4355 c-132 -29 -249 -116 -310 -232 -51 -94 -67 -170 -66
-308 1 -101 5 -133 27 -200 56 -174 176 -283 353 -320 253 -54 483 37 578 228
54 107 58 103 -100 99 l-134 -3 -31 -39 c-42 -53 -102 -80 -175 -80 -155 0
-239 116 -239 330 0 208 82 320 234 320 76 0 132 -28 172 -84 l32 -46 137 0
137 0 -10 38 c-18 65 -70 152 -117 194 -112 100 -310 142 -488 103z"/>
<path d="M6770 4128 c-77 -85 -158 -146 -264 -200 -124 -62 -203 -79 -421 -87
-161 -7 -198 -11 -244 -30 -62 -25 -125 -67 -162 -108 -14 -15 -193 -275 -396
-578 -204 -302 -394 -583 -422 -624 -28 -41 -51 -78 -51 -83 0 -14 309 -9 409
7 171 28 346 102 482 204 133 101 195 180 497 634 322 485 385 561 537 651 44
26 73 46 65 45 -34 -4 -38 1 -34 39 2 20 1 32 -3 27 -7 -10 -16 -11 -40 -6 -5
1 -1 6 7 11 13 8 12 10 -2 10 -10 0 -18 4 -18 8 0 17 66 69 84 66 10 -1 15 0
12 3 -3 4 -1 12 5 20 6 7 8 13 4 13 -4 0 0 11 9 25 9 14 15 25 14 25 -2 0 -32
-32 -68 -72z"/>
<path d="M7015 3825 c-127 -27 -274 -112 -362 -209 -28 -30 -161 -220 -296
-423 -134 -202 -276 -404 -314 -448 -205 -237 -499 -414 -793 -476 -30 -7
-170 -15 -310 -18 l-255 -6 -79 -115 c-284 -415 -306 -450 -306 -497 0 -36 6
-50 30 -74 l30 -30 247 3 c233 3 250 4 289 25 72 38 104 73 204 222 203 304
373 449 654 561 128 51 251 70 444 70 93 0 193 5 223 10 76 15 170 61 224 111
31 28 190 257 458 656 227 337 418 622 426 633 13 20 11 20 -220 19 -153 0
-255 -5 -294 -14z"/>
<path d="M9636 3049 c-69 -16 -164 -70 -216 -122 -174 -174 -186 -544 -24
-743 166 -206 557 -215 743 -19 90 95 131 215 131 385 0 259 -124 437 -345
495 -65 17 -225 19 -289 4z m230 -218 c97 -44 139 -143 132 -310 -6 -123 -27
-179 -88 -235 -44 -39 -86 -50 -166 -44 -70 6 -118 43 -159 123 -29 56 -30 65
-30 179 0 104 4 128 23 172 13 29 36 64 52 79 56 54 161 70 236 36z"/>
<path d="M10726 3049 c-71 -17 -170 -72 -221 -124 -90 -92 -135 -216 -135
-375 0 -174 39 -288 131 -385 90 -96 203 -138 364 -139 267 0 435 138 482 397
46 255 -48 491 -233 585 -93 47 -277 67 -388 41z m230 -223 c92 -43 127 -118
128 -276 1 -120 -16 -183 -64 -242 -60 -73 -168 -92 -258 -46 -117 60 -166
270 -102 442 47 125 175 178 296 122z"/>
<path d="M11820 3044 c-175 -47 -275 -135 -319 -279 -16 -52 -19 -105 -22
-390 l-4 -330 132 -3 131 -3 4 328 c3 322 3 329 27 376 75 154 318 137 366
-26 12 -40 15 -114 15 -364 l0 -313 135 0 135 0 0 323 c0 349 -7 413 -53 503
-48 94 -146 161 -267 184 -75 14 -215 11 -280 -6z"/>
<path d="M8390 2940 l0 -100 255 -2 255 -3 -231 -265 c-338 -387 -302 -335
-301 -438 l0 -87 431 -3 431 -2 0 105 0 105 -265 0 c-146 0 -265 3 -265 8 0 4
28 39 63 78 34 39 101 115 148 170 47 54 136 156 197 227 l112 128 0 89 0 90
-415 0 -415 0 0 -100z"/>
<path d="M5796 2199 c-106 -26 -207 -81 -289 -158 -69 -65 -95 -100 -275 -364
l-101 -148 447 3 447 3 45 24 c91 48 117 79 307 364 103 155 189 285 191 290
2 4 -153 7 -345 6 -309 0 -357 -3 -427 -20z"/>
<path d="M6889 2211 c-44 -9 -112 -43 -160 -82 -22 -17 -115 -146 -229 -314
l-191 -286 418 3 418 3 57 27 c31 14 76 46 100 70 38 38 398 565 398 582 0 8
-766 6 -811 -3z"/>
<path d="M9500 1760 c0 -11 5 -20 10 -20 6 0 10 9 10 20 0 11 -4 20 -10 20 -5
0 -10 -9 -10 -20z"/>
<path d="M10660 1650 c0 -109 2 -130 15 -130 12 0 15 14 15 69 0 75 12 95 52
89 26 -4 36 -30 37 -105 2 -81 21 -64 21 18 0 88 -10 109 -53 109 -18 0 -38
-5 -45 -12 -9 -9 -12 0 -12 40 0 40 -4 52 -15 52 -13 0 -15 -21 -15 -130z"/>
<path d="M11240 1650 c0 -80 4 -130 10 -130 6 0 10 50 10 130 0 80 -4 130 -10
130 -6 0 -10 -50 -10 -130z"/>
<path d="M8416 1658 c-20 -62 -40 -119 -43 -125 -2 -7 2 -13 11 -13 9 0 19 15
26 41 l11 40 51 -3 c49 -3 52 -5 63 -38 6 -19 19 -36 28 -38 14 -3 11 13 -18
95 -53 146 -56 153 -74 153 -12 0 -27 -30 -55 -112z m93 -20 c1 -14 -7 -18
-39 -18 -22 0 -40 2 -40 4 0 2 6 19 14 37 7 19 16 43 21 54 6 18 9 15 25 -20
10 -22 19 -48 19 -57z"/>
<path d="M8710 1645 c0 -77 4 -125 10 -125 6 0 10 22 10 49 l0 48 53 6 c83 10
114 71 62 122 -20 21 -34 25 -80 25 l-55 0 0 -125z m118 82 c15 -12 16 -49 0
-65 -7 -7 -31 -12 -55 -12 l-43 0 0 44 c0 41 2 45 28 48 30 4 51 0 70 -15z"/>
<path d="M10120 1754 c0 -9 8 -14 18 -13 64 6 62 9 62 -111 0 -67 4 -110 10
-110 6 0 10 43 10 110 l0 110 40 0 c29 0 40 4 40 15 0 12 -17 15 -90 15 -75 0
-90 -3 -90 -16z"/>
<path d="M11984 1658 c-20 -62 -39 -119 -42 -125 -2 -7 2 -13 10 -13 9 0 20
17 27 41 l12 40 51 -3 c49 -3 52 -5 63 -37 11 -33 35 -55 35 -32 0 5 -18 62
-41 125 -55 154 -65 155 -115 4z m79 29 c9 -30 17 -57 17 -60 0 -4 -18 -7 -41
-7 -34 0 -40 3 -35 16 4 9 11 36 17 60 6 24 15 44 18 44 4 0 15 -24 24 -53z"/>
<path d="M8910 1610 c0 -53 4 -90 10 -90 6 0 10 25 10 56 0 50 3 59 31 85 34
32 32 52 -4 30 -15 -10 -22 -10 -25 -2 -2 6 -8 11 -13 11 -5 0 -9 -40 -9 -90z"/>
<path d="M9040 1680 c-15 -15 -20 -33 -20 -70 0 -37 5 -55 20 -70 26 -26 74
-26 101 1 25 25 17 39 -9 16 -26 -23 -58 -21 -76 5 -28 40 -21 48 44 48 59 0
60 0 60 28 0 57 -78 84 -120 42z m90 -15 c23 -27 4 -46 -42 -43 -46 3 -57 17
-33 42 21 20 59 21 75 1z"/>
<path d="M9210 1610 c0 -53 4 -90 10 -90 6 0 10 26 10 58 0 67 20 105 53 100
20 -3 22 -10 25 -80 2 -60 6 -78 17 -78 12 0 15 16 15 75 0 72 1 75 26 81 14
4 29 3 34 -2 5 -5 10 -40 12 -78 2 -44 8 -71 16 -74 20 -6 17 142 -4 162 -18
19 -47 20 -76 5 -14 -8 -23 -8 -31 0 -15 15 -60 14 -75 -1 -9 -9 -12 -9 -12 0
0 7 -4 12 -10 12 -6 0 -10 -37 -10 -90z"/>
<path d="M9500 1610 c0 -53 4 -90 10 -90 6 0 10 37 10 90 0 53 -4 90 -10 90
-6 0 -10 -37 -10 -90z"/>
<path d="M9580 1626 c0 -54 4 -79 16 -90 19 -19 55 -21 73 -3 11 10 14 10 18
0 13 -36 23 -3 23 77 0 53 -4 90 -10 90 -6 0 -10 -28 -10 -63 0 -49 -4 -68
-18 -80 -43 -39 -72 -7 -72 79 0 36 -4 64 -10 64 -6 0 -10 -31 -10 -74z"/>
<path d="M9770 1610 c0 -107 16 -121 22 -19 4 74 15 91 53 87 17 -3 21 -12 25
-77 3 -47 10 -76 18 -79 9 -3 12 15 12 65 0 71 10 93 42 93 26 0 38 -31 38
-99 0 -34 4 -61 10 -61 15 0 13 153 -2 168 -7 7 -24 12 -38 12 -14 0 -31 -5
-38 -12 -9 -9 -15 -9 -24 0 -7 7 -26 12 -43 12 -17 0 -36 -5 -43 -12 -9 -9
-12 -9 -12 0 0 7 -4 12 -10 12 -6 0 -10 -37 -10 -90z"/>
<path d="M10327 1688 c-28 -22 -38 -65 -27 -109 11 -41 33 -59 74 -59 28 0 78
41 58 48 -7 2 -19 -4 -28 -12 -22 -22 -50 -20 -68 6 -28 40 -21 48 44 48 56 0
60 2 60 23 0 38 -27 67 -64 67 -18 0 -40 -6 -49 -12z m83 -29 c15 -27 9 -32
-40 -32 -49 0 -55 5 -40 32 7 14 21 21 40 21 19 0 33 -7 40 -21z"/>
<path d="M10500 1678 c-28 -30 -28 -110 0 -138 27 -27 74 -26 102 2 14 14 17
23 10 26 -7 2 -19 -4 -28 -12 -20 -20 -48 -20 -64 -1 -17 21 -18 89 -1 109 17
20 60 21 67 1 6 -16 34 -21 34 -7 0 5 -8 16 -18 25 -26 24 -77 21 -102 -5z"/>
<path d="M10852 1613 c2 -58 7 -88 16 -91 9 -3 12 13 12 58 0 73 12 100 45
100 33 0 45 -27 45 -99 0 -34 4 -61 10 -61 13 0 13 136 0 161 -12 22 -68 27
-88 7 -9 -9 -12 -9 -12 0 0 7 -7 12 -15 12 -13 0 -15 -14 -13 -87z"/>
<path d="M11060 1680 c-15 -15 -20 -33 -20 -70 0 -61 24 -90 74 -90 25 0 40 7
55 26 28 36 28 102 1 132 -27 29 -83 29 -110 2z m96 -26 c25 -37 9 -95 -30
-109 -24 -8 -31 -6 -47 14 -10 13 -19 37 -19 54 0 63 64 90 96 41z"/>
<path d="M11330 1680 c-30 -30 -28 -109 3 -138 30 -28 69 -28 101 1 24 21 30
42 27 95 -2 34 -36 62 -76 62 -22 0 -43 -8 -55 -20z m94 -22 c35 -50 4 -127
-46 -115 -45 12 -59 83 -26 125 16 19 55 14 72 -10z"/>
<path d="M11520 1680 c-14 -14 -20 -33 -20 -63 0 -72 42 -109 94 -81 24 12 26
11 26 -7 0 -53 -44 -76 -81 -43 -28 25 -47 12 -21 -14 29 -29 82 -29 108 -1
16 17 20 40 22 124 l4 102 -56 2 c-44 1 -60 -3 -76 -19z m88 -12 c20 -20 15
-92 -7 -112 -54 -49 -107 53 -59 111 13 16 50 17 66 1z"/>
<path d="M11690 1695 c0 -4 13 -44 29 -90 32 -91 31 -122 -5 -131 -13 -3 -21
-10 -18 -15 10 -17 44 -9 58 14 20 29 79 217 72 225 -11 10 -22 -11 -41 -75
-10 -35 -21 -63 -24 -63 -3 0 -15 30 -26 67 -11 36 -26 68 -32 71 -7 2 -13 1
-13 -3z"/>
<path d="M12180 1575 c0 -104 2 -125 15 -125 11 0 15 12 15 47 0 37 3 44 12
35 19 -19 63 -14 86 11 27 28 30 101 6 135 -17 25 -71 31 -92 10 -9 -9 -12 -9
-12 0 0 7 -7 12 -15 12 -13 0 -15 -21 -15 -125z m114 83 c32 -45 8 -118 -38
-118 -33 0 -46 19 -46 70 0 25 5 51 12 58 19 19 55 14 72 -10z"/>
<path d="M12380 1575 c0 -77 4 -125 10 -125 6 0 10 20 10 44 l0 44 29 -11 c56
-21 101 20 101 92 0 60 -71 105 -109 69 -11 -10 -14 -10 -18 0 -3 6 -9 12 -14
12 -5 0 -9 -56 -9 -125z m108 93 c18 -18 15 -94 -4 -112 -34 -35 -84 -2 -84
54 0 54 55 91 88 58z"/>
</g>
</svg>
